<svg width="28" height="28" fill="none" xmlns="http://www.w3.org/2000/svg"><path d="M14.001 0c-3.802 0-4.28.017-5.773.085-1.49.068-2.507.304-3.398.65a6.855 6.855 0 00-2.48 1.614A6.873 6.873 0 00.734 4.83c-.347.89-.583 1.908-.65 3.398C.018 9.72 0 10.197 0 14c0 3.802.017 4.278.085 5.771.068 1.49.304 2.508.65 3.398a6.86 6.86 0 001.615 2.48 6.856 6.856 0 002.479 1.616c.89.346 1.908.582 3.398.65 1.494.068 1.97.085 5.773.085 3.802 0 4.278-.017 5.771-.085 1.49-.068 2.51-.304 3.4-.65a6.85 6.85 0 002.478-1.616 6.873 6.873 0 001.616-2.48c.344-.89.58-1.908.65-3.398.068-1.493.085-1.969.085-5.771 0-3.802-.017-4.28-.085-5.773-.07-1.49-.306-2.507-.65-3.398a6.871 6.871 0 00-1.616-2.48A6.842 6.842 0 0023.17.735c-.893-.346-1.91-.582-3.4-.65C18.275.017 17.8 0 13.996 0H14zm-1.256 2.523h1.256c3.738 0 4.181.013 5.657.08 1.365.063 2.106.29 2.6.483a4.33 4.33 0 011.608 1.047c.49.49.794.956 1.048 1.61.192.493.42 1.233.482 2.598.067 1.476.082 1.92.082 5.656 0 3.736-.015 4.18-.082 5.655-.062 1.365-.29 2.106-.482 2.599a4.328 4.328 0 01-1.048 1.608 4.33 4.33 0 01-1.608 1.047c-.493.193-1.235.42-2.6.483-1.476.067-1.919.081-5.657.081s-4.181-.014-5.657-.081c-1.365-.063-2.106-.291-2.6-.483a4.337 4.337 0 01-1.61-1.047 4.34 4.34 0 01-1.048-1.61c-.191-.492-.42-1.233-.482-2.598-.067-1.476-.08-1.92-.08-5.658 0-3.738.013-4.18.08-5.655.063-1.365.29-2.106.482-2.6a4.338 4.338 0 011.048-1.61c.49-.49.957-.793 1.61-1.047.494-.193 1.235-.42 2.6-.483 1.291-.058 1.792-.076 4.401-.079v.004z" fill="#2E4C70"/><path d="M21.444 4.813a1.68 1.68 0 100 3.36 1.68 1.68 0 000-3.36z" fill="#2E4C70"/><path fill-rule="evenodd" clip-rule="evenodd" d="M13.97 6.776a7.19 7.19 0 10.001 14.38 7.19 7.19 0 000-14.38zM14 18.594a4.594 4.594 0 100-9.188 4.594 4.594 0 000 9.188z" fill="#2E4C70"/></svg>