<svg width="31" height="32" fill="none" xmlns="http://www.w3.org/2000/svg"><path d="M15.5 31.869c8.56 0 15.5-7.134 15.5-15.935C31 7.134 24.06 0 15.5 0 6.94 0 0 7.134 0 15.934c0 8.8 6.94 15.935 15.5 15.935z" fill="#fff"/><path d="M15.5 0C6.94 0 0 7.134 0 15.934 0 22.69 4.082 28.46 9.849 30.78c-.14-1.259-.256-3.2.05-4.577.281-1.246 1.812-7.921 1.812-7.921s-.46-.957-.46-2.36c0-2.217 1.251-3.87 2.807-3.87 1.327 0 1.965 1.023 1.965 2.243 0 1.364-.842 3.41-1.288 5.312-.37 1.586.778 2.885 2.296 2.885 2.755 0 4.873-2.99 4.873-7.292 0-3.816-2.666-6.479-6.48-6.479-4.415 0-7.004 3.397-7.004 6.912 0 1.364.51 2.833 1.148 3.633.127.157.14.301.102.459-.115.498-.383 1.586-.434 1.81-.064.288-.23.354-.523.21-1.939-.932-3.15-3.83-3.15-6.178 0-5.023 3.546-9.64 10.243-9.64 5.371 0 9.555 3.935 9.555 9.207 0 5.495-3.368 9.915-8.037 9.915-1.569 0-3.049-.84-3.546-1.836l-.97 3.79c-.344 1.39-1.288 3.122-1.926 4.184 1.454.459 2.985.708 4.593.708 8.56 0 15.5-7.134 15.5-15.934C31 7.134 24.06 0 15.5 0z" fill="#2E4C70"/></svg>