<svg width="29" height="31" fill="none" xmlns="http://www.w3.org/2000/svg"><path fill-rule="evenodd" clip-rule="evenodd" d="M8.743 24.105a3.784 3.784 0 001.863.492c2.162 0 3.928-1.839 4.008-4.13L14.62 0h4.777c0 .435.039.868.113 1.296h-3.497 4.777c0 1.713.58 3.368 1.635 4.658l.001.002a6.3 6.3 0 003.618 1.149v1.137c.45.103.914.158 1.393.158v5.108c-2.385.003-4.71-.797-6.647-2.285v10.378c0 5.182-3.945 9.399-8.793 9.399a8.287 8.287 0 01-3.509-.782 8.798 8.798 0 01-2.92-2.216l-.002-.001c-2.268-1.702-3.755-4.516-3.755-7.696 0-5.183 3.945-9.4 8.794-9.4.396.002.792.033 1.185.092v1.21l.082-.003c.042-.002.083-.003.125-.003.396.002.792.032 1.185.092v5.213a3.713 3.713 0 00-1.185-.198c-1.065.001-2.086.454-2.839 1.259A4.452 4.452 0 007.982 21.6c0 .899.266 1.775.76 2.503zm-4.958.85z" fill="#2D4D70"/></svg>