<svg width="31" height="32" fill="none" xmlns="http://www.w3.org/2000/svg"><path fill-rule="evenodd" clip-rule="evenodd" d="M15.5 0C24.06 0 31 7.163 31 16s-6.94 16-15.5 16C6.94 32 0 24.837 0 16S6.94 0 15.5 0zM7.321 8.89c1.64-.44 8.172-.44 8.172-.44s6.546 0 8.186.467c.89.24 1.6.973 1.833 1.892.452 1.693.439 5.211.439 5.211s0 3.505-.44 5.184a2.641 2.641 0 01-1.832 1.906c-1.64.44-8.185.44-8.185.44s-6.52 0-8.173-.454c-.89-.253-1.6-.986-1.846-1.905-.426-1.666-.426-5.184-.426-5.184s0-3.505.426-5.198c.246-.92.968-1.666 1.846-1.919zm11.53 7.117l-5.436-3.239v6.464l5.435-3.225z" fill="#2D4D70"/></svg>